HIERARCHY
ROOT Hips
{
	OFFSET 0.000000 0.000000 0.000000
	CHANNELS 6 Xposition Yposition Zposition Xrotation Yrotation Zrotation
	JOINT LeftUpLeg_virtual
	{
		OFFSET 0.000000 0.000000 0.000000
		CHANNELS 3 Xrotation Yrotation Zrotation
		JOINT LeftUpLeg
		{
			OFFSET 11.394100 -6.187798 -0.413800
			CHANNELS 3 Xrotation Yrotation Zrotation
			JOINT LeftLeg
			{
				OFFSET 0.430247 -32.302673 3.732800
				CHANNELS 3 Xrotation Yrotation Zrotation
				JOINT LeftFoot
				{
					OFFSET -0.430247 -48.264931 -6.423300
					CHANNELS 3 Xrotation Yrotation Zrotation
					JOINT LeftToeBase
					{
						OFFSET 4.230900 -16.068199 23.438400
						CHANNELS 3 Xrotation Yrotation Zrotation
						JOINT LeftToe_End
						{
							OFFSET 4.510700 0.695400 19.974600
							CHANNELS 3 Xrotation Yrotation Zrotation
							End Site
							{
								OFFSET 0 0 0
							}
						}
					}
				}
			}
		}
	}
	JOINT RightUpLeg_virtual
	{
		OFFSET 0.000000 0.000000 0.000000
		CHANNELS 3 Xrotation Yrotation Zrotation
		JOINT RightUpLeg
		{
			OFFSET -11.333700 -6.187798 -0.413800
			CHANNELS 3 Xrotation Yrotation Zrotation
			JOINT RightLeg
			{
				OFFSET -0.430392 -32.302628 3.733000
				CHANNELS 3 Xrotation Yrotation Zrotation
				JOINT RightFoot
				{
					OFFSET 0.430392 -48.264973 -6.423500
					CHANNELS 3 Xrotation Yrotation Zrotation
					JOINT RightToeBase
					{
						OFFSET -4.230900 -16.068199 23.438400
						CHANNELS 3 Xrotation Yrotation Zrotation
						JOINT RightToe_End
						{
							OFFSET -4.510700 0.695400 19.974600
							CHANNELS 3 Xrotation Yrotation Zrotation
							End Site
							{
								OFFSET 0 0 0
							}
						}
					}
				}
			}
		}
	}
	JOINT Spine_virtual
	{
		OFFSET 0.000000 0.000000 0.000000
		CHANNELS 3 Xrotation Yrotation Zrotation
		JOINT Spine
		{
			OFFSET -0.002400 12.777504 0.315300
			CHANNELS 3 Xrotation Yrotation Zrotation
			JOINT Spine1
			{
				OFFSET -0.002067 5.816869 0.032633
				CHANNELS 3 Xrotation Yrotation Zrotation
				JOINT Spine1_split
				{
					OFFSET -0.002067 5.816869 0.032633
					CHANNELS 3 Xrotation Yrotation Zrotation
					JOINT Spine2
					{
						OFFSET -0.002067 5.816869 0.032633
						CHANNELS 3 Xrotation Yrotation Zrotation
						JOINT Neck_virtual
						{
							OFFSET 0.000000 0.000000 0.000000
							CHANNELS 3 Xrotation Yrotation Zrotation
							JOINT Neck
							{
								OFFSET -0.003700 21.199493 -0.826900
								CHANNELS 3 Xrotation Yrotation Zrotation
								JOINT Head
								{
									OFFSET 0.000000 20.442200 4.834800
									CHANNELS 3 Xrotation Yrotation Zrotation
									JOINT HeadTop_End
									{
										OFFSET 0.000000 34.668396 4.968400
										CHANNELS 3 Xrotation Yrotation Zrotation
										End Site
										{
											OFFSET 0 0 0
										}
									}
								}
							}
						}
						JOINT LeftShoulder_virtual
						{
							OFFSET 0.000000 0.000000 0.000000
							CHANNELS 3 Xrotation Yrotation Zrotation
							JOINT LeftShoulder
							{
								OFFSET 3.288150 8.794197 -1.372250
								CHANNELS 3 Xrotation Yrotation Zrotation
								JOINT LeftShoulder_split
								{
									OFFSET 3.288150 8.794197 -1.372250
									CHANNELS 3 Xrotation Yrotation Zrotation
									JOINT LeftArm
									{
										OFFSET 11.953299 -2.279007 -0.146200
										CHANNELS 3 Xrotation Yrotation Zrotation
										JOINT LeftForeArm
										{
											OFFSET 18.448900 0.000000 0.000000
											CHANNELS 3 Xrotation Yrotation Zrotation
											JOINT LeftHand
											{
												OFFSET 29.527798 0.000000 0.000000
												CHANNELS 3 Xrotation Yrotation Zrotation
												End Site
												{
													OFFSET 0 0 0
												}
											}
										}
									}
								}
							}
						}
						JOINT RightShoulder_virtual
						{
							OFFSET 0.000000 0.000000 0.000000
							CHANNELS 3 Xrotation Yrotation Zrotation
							JOINT RightShoulder
							{
								OFFSET -3.249400 8.794197 -1.372250
								CHANNELS 3 Xrotation Yrotation Zrotation
								JOINT RightShoulder_split
								{
									OFFSET -3.249400 8.794197 -1.372250
									CHANNELS 3 Xrotation Yrotation Zrotation
									JOINT RightArm
									{
										OFFSET -11.953299 -2.279007 -0.146200
										CHANNELS 3 Xrotation Yrotation Zrotation
										JOINT RightForeArm
										{
											OFFSET -18.448900 0.000000 0.000000
											CHANNELS 3 Xrotation Yrotation Zrotation
											JOINT RightHand
											{
												OFFSET -29.527802 0.000000 0.000000
												CHANNELS 3 Xrotation Yrotation Zrotation
												End Site
												{
													OFFSET 0 0 0
												}
											}
										}
									}
								}
							}
						}
					}
				}
			}
		}
	}
}
MOTION
Frames: 4
Frame Time: 0.03333333
0.412176 84.851540 4.218044 0.000000 0.000000 0.000000 0.630565 -39.867988 4.907388 -44.325544 8.477127 20.692734 61.209095 -9.059156 -0.253705 -19.041193 -12.536921 -10.632890 -1.594206 0.000015 0.000003 0.000000 0.000000 0.000000 0.630565 -39.867988 4.907388 -28.814980 -5.887431 -32.775902 56.171442 -10.482454 -5.445840 -19.122124 -6.820719 25.712700 -1.421723 -0.000016 -0.000003 0.000000 0.000000 0.000000 0.630565 -39.867988 4.907388 9.147569 12.597586 -4.555256 1.672187 3.532447 -1.569846 0.000000 0.000000 0.000000 0.000000 0.000000 0.000000 1.638522 3.528964 -1.543016 -4.862646 12.139443 2.331067 4.632082 10.710224 1.658943 0.000000 0.000000 0.000000 1.638522 3.528964 -1.543016 0.209298 2.974847 -2.473006 0.000000 0.000000 0.000000 0.123069 -7.830009 -46.663661 179.999978 -48.219957 179.999978 0.000000 0.000000 0.000000 1.638522 3.528964 -1.543016 -0.105684 15.835792 -4.186724 0.000000 0.000000 0.000000 -49.344507 18.610572 60.543405 179.999991 75.519899 -179.999991 0.000000 0.000000 0.000000 
1.100635 85.106247 4.403759 0.000000 0.000000 0.000000 1.534552 -47.385366 5.894498 -41.988168 10.394226 22.169134 60.616747 -9.029726 -1.554901 -20.280058 -7.579539 -10.109395 -1.594206 0.000012 0.000003 0.000000 0.000000 0.000000 1.534552 -47.385366 5.894498 -32.844682 -2.709471 -30.581595 55.826343 -7.509210 -8.214170 -17.746073 -5.452711 24.812066 -1.421723 -0.000016 -0.000003 0.000000 0.000000 0.000000 1.534552 -47.385366 5.894498 9.376057 13.391633 -4.634383 1.781056 3.670399 -1.552475 0.000000 0.000000 0.000000 0.000000 0.000000 0.000000 1.745709 3.669437 -1.526469 -4.852180 13.507692 1.989612 5.455247 14.636201 -0.622791 0.000000 0.000000 0.000000 1.745709 3.669437 -1.526469 0.097888 3.823971 -2.193748 0.000000 0.000000 0.000000 0.257141 0.811126 -40.840262 179.999991 -46.688106 179.999991 0.000000 0.000000 0.000000 1.745709 3.669437 -1.526469 0.200216 11.353368 -3.117912 0.000000 0.000000 0.000000 -51.036970 23.059950 69.349028 -179.999950 73.542286 179.999923 0.000000 0.000000 0.000000 
1.674848 85.254295 4.367279 0.000000 0.000000 0.000000 3.227351 -54.964960 6.859973 -40.069233 11.064631 23.434703 60.364249 -8.897465 -2.702349 -21.666928 -1.621658 -9.850322 -1.594206 0.000014 0.000003 0.000000 0.000000 0.000000 3.227351 -54.964960 6.859973 -37.552933 -0.765401 -27.657241 55.955174 -2.944312 -10.136569 -16.398065 -4.520917 22.867589 -1.421723 -0.000016 -0.000002 0.000000 0.000000 0.000000 3.227351 -54.964960 6.859973 9.161659 12.947572 -4.578322 1.764131 3.368148 -1.656707 0.000000 0.000000 0.000000 0.000000 0.000000 0.000000 1.742110 3.364814 -1.629984 -5.053194 15.121585 2.024822 6.249758 20.624678 -3.332860 0.000000 0.000000 0.000000 1.742110 3.364814 -1.629984 -0.179992 5.325318 -0.579760 0.000000 0.000000 0.000000 -7.789438 6.885921 -33.013135 -179.999991 -52.729740 -179.999991 0.000000 0.000000 0.000000 1.742110 3.364814 -1.629984 0.645882 8.044685 -2.081283 0.000000 0.000000 0.000000 -52.775666 29.458544 75.713863 -179.999841 72.419294 179.999841 0.000000 0.000000 0.000000 
2.127144 85.199326 4.026188 0.000000 0.000000 0.000000 3.373912 -59.711713 5.943986 -38.658338 9.951979 23.729527 60.955463 -8.823415 -2.748647 -22.676593 3.540284 -9.953173 -1.594206 0.000012 0.000003 0.000000 0.000000 0.000000 3.373912 -59.711713 5.943986 -40.162957 -0.237824 -25.594792 56.482642 0.149621 -10.134899 -15.537668 -3.459228 20.979095 -1.421723 -0.000016 -0.000003 0.000000 0.000000 0.000000 3.373912 -59.711713 5.943986 9.327099 10.919835 -4.093861 1.947400 2.500742 -1.752771 0.000000 0.000000 0.000000 0.000000 0.000000 0.000000 1.954958 2.491322 -1.724666 -5.559964 16.496973 2.373657 6.629186 26.689475 -5.918443 0.000000 0.000000 0.000000 1.954958 2.491322 -1.724666 -0.413425 6.098903 1.409509 0.000000 0.000000 0.000000 -19.127557 3.078808 -25.363937 -179.999978 -72.730545 -180.000005 0.000000 0.000000 0.000000 1.954958 2.491322 -1.724666 1.134234 6.092607 -1.214581 0.000000 0.000000 0.000000 -52.963039 35.555069 78.044521 179.999937 69.886222 -179.999937 0.000000 0.000000 0.000000 
